<?xml version="1.0" encoding="UTF-8"?>
<svg id="Layer_1" xmlns="http://www.w3.org/2000/svg" version="1.1" viewBox="0 0 100 100">
  <!-- Generator: Adobe Illustrator 29.5.1, SVG Export Plug-In . SVG Version: 2.1.0 Build 141)  -->
  <defs>
    <style>
      .st0 {
        fill: #fff;
      }

      .st1 {
        fill: none;
        stroke: #000;
        stroke-width: 4px;
      }
    </style>
  </defs>
  <rect class="st1" x="2" y="2" width="96" height="96" rx="20" ry="20"/>
  <g>
    <g>
      <path d="M54.63,67.28c.07,0,.42.39.36-.07l-5.29-10.06c-3.3-5.4,3.44-10.86,7.77-6.01,1.76,1.97,3.27,4.84,4.68,7.08,1.47-.79,2.98-1.1,4.61-.59.45.14,1.5.86,1.74.87.38.02,1.27-.37,1.78-.41.65-.05,1.59.14,2.2.39.33.14,1.02.72,1.17.74.09.01,1.17-.57,1.65-.64,3.47-.53,5.35,3.28,6.76,5.83,3.52,6.38,6.51,13.27-.17,18.88-9.25,7.78-20.12-.38-28.05-5.71-2.66-1.79-7.02-4.5-4.37-8.29.43-.62,2.28-2,2.97-2s1.47-.04,2.19,0ZM55.97,52.72c-2.77-2.71-6-.47-4.46,3.22s4.25,8.14,6.19,11.93c.64,1.25,1.29,2.51,1.82,3.8-2.33-1.02-5.12-3.74-7.74-1.82-.86.63-1.06,1.35-.79,2.37.37,1.41,3.01,2.87,4.21,3.68,7.04,4.77,16.97,12.65,25.28,5.84,6.14-5.04,2.28-12.27-.92-17.78-1.19-2.05-2.29-4.49-5.14-3.26.26.56,1.06,3.01-.15,1.82-.42-.41-.73-1.15-1.17-1.61-1.05-1.12-2.39-1.43-3.8-.8.3.92.92,1.66.73,2.7,0,.13-.29.1-.36.07-.17-.08-1.16-1.83-1.54-2.22-1.36-1.4-3.48-1.75-5.11-.63.47.57,1.92,3.48,1.54,4.03s-1.01-.27-1.23-.54c-2.46-3.06-4.65-8.14-7.38-10.81Z"/>
      <path class="st0" d="M55.97,52.72c2.73,2.68,4.93,7.75,7.38,10.81.22.27.85,1.08,1.23.54s-1.07-3.45-1.54-4.03c1.63-1.12,3.75-.77,5.11.63.38.39,1.37,2.14,1.54,2.22.07.03.36.06.36-.07.18-1.04-.43-1.78-.73-2.7,1.42-.63,2.75-.32,3.8.8.43.46.74,1.2,1.17,1.61,1.21,1.18.41-1.27.15-1.82,2.85-1.22,3.95,1.22,5.14,3.26,3.2,5.51,7.06,12.74.92,17.78-8.31,6.81-18.25-1.07-25.28-5.84-1.2-.81-3.84-2.28-4.21-3.68-.27-1.02-.07-1.74.79-2.37,2.61-1.92,5.41.79,7.74,1.82-.53-1.3-1.18-2.56-1.82-3.8-1.95-3.79-4.58-8.07-6.19-11.93s1.69-5.93,4.46-3.22Z"/>
    </g>
    <g>
      <path d="M59.67,51.35c-.23.26-1.83-1.78-1.89-2.13-.14-.75.25-2.09.29-2.91.92-18.31-16.94-31.31-34.1-24.74-19.78,7.57-20.62,34.72-1.33,43.64,9.06,4.19,19.89,2.4,27.16-4.36l1.22,2.14c.06.61-4.09,3.1-4.8,3.48-15.29,8.17-35.22.25-39.34-16.79C2.34,30.88,18.78,15.14,37.34,17.92c15.89,2.38,26.01,17.85,22.33,33.43Z"/>
      <path d="M26.02,23.48c1.05-.14,2.57,0,2.66,1.36.11,1.67-2.01,1.89-3.11,2.42-4.29,2.09-6.62,4.6-9.03,8.65-.53.88-.92,2.63-2.23,2.57-1.55-.06-1.72-1.64-1.41-2.85,1.14-4.44,8.55-11.54,13.12-12.16Z"/>
    </g>
  </g>
  <g>
    <path d="M62.93,27.63c-1.23-.97-.26-2.72,1.35-2.74,4.18-.05,8.52.36,12.71.46,3.86.09,8.53-.23,12.28.14,2.03.2,2.13,1.87.15,2.05-4.62.43-9.82-.24-14.47.29-2.73.03-5.47-.05-8.2-.01-1,.02-2.96.5-3.82-.18Z"/>
    <path d="M67.96,36.77c1.64-.37,4.35.21,6.11-.04,4.22.14,8.48.34,12.7.45,1.09.03,4.92-.24,5.56.28.54.44.45,1.33-.21,1.55-.31.1-1.68.19-2.12.22-7.12.38-14.49-.02-21.64.29-1.59.05-1.87-2.42-.41-2.75Z"/>
    <path d="M68.4,48.17c2.08.16,4.17.06,6.26.11,2.21.05,4.5.23,6.71.3.99.03,4.16-.24,4.76.36.38.37.15,1.37-.44,1.47-4.78.4-9.61.15-14.41.21-1.04.01-2.31.45-3.34-.16-.96-.57-.55-2,.45-2.29Z"/>
  </g>
</svg>